<?xml version="1.0" standalone="no"?>
<!DOCTYPE svg PUBLIC "-//W3C//DTD SVG 20010904//EN"
 "http://www.w3.org/TR/2001/REC-SVG-20010904/DTD/svg10.dtd">
<svg version="1.0" xmlns="http://www.w3.org/2000/svg"
 width="720.000000pt" height="720.000000pt" viewBox="0 0 720.000000 720.000000"
 preserveAspectRatio="xMidYMid meet">
<metadata>
Created by potrace 1.14, written by Peter Selinger 2001-2017
</metadata>
<g transform="translate(0.000000,720.000000) scale(0.100000,-0.100000)"
fill="#000000" stroke="none">
<path d="M156 7185 c-57 -20 -87 -45 -121 -100 l-30 -48 0 -3437 0 -3437 30
-49 c19 -30 49 -60 79 -79 l49 -30 3437 0 3437 0 49 30 c30 19 60 49 79 79
l30 49 0 3437 0 3437 -30 49 c-34 54 -78 88 -134 104 -24 6 -1188 10 -3436 10
-2893 -1 -3406 -3 -3439 -15z m5844 -1502 c232 -66 382 -153 541 -312 208
-209 314 -441 338 -742 21 -254 -45 -504 -189 -721 -185 -278 -458 -455 -792
-512 l-38 -7 0 -479 c0 -264 -2 -480 -5 -480 -3 0 -237 214 -520 475 l-515
475 -343 0 -342 0 -45 -98 c-81 -175 -174 -296 -326 -426 -129 -110 -289 -189
-474 -234 -102 -25 -117 -25 -503 -29 l-397 -4 -515 -475 c-283 -261 -517
-474 -520 -474 -3 0 -5 216 -5 479 l0 479 -67 12 c-375 64 -709 331 -863 688
-133 309 -121 685 32 987 182 360 534 596 946 635 62 6 440 10 894 10 l786 0
12 38 c17 53 95 196 145 267 23 33 86 102 138 152 136 132 267 213 432 267
172 57 131 55 1165 52 942 -2 956 -2 1030 -23z"/>
<path d="M3985 5410 c-263 -60 -471 -223 -594 -467 -17 -34 -27 -64 -23 -67 5
-3 31 -13 58 -22 84 -28 216 -99 299 -161 292 -217 466 -560 468 -920 l0 -113
368 0 369 0 322 -298 323 -299 3 297 2 297 138 6 c166 6 259 28 389 92 186 92
332 241 415 423 50 110 68 187 75 319 10 199 -23 341 -114 494 -132 222 -310
354 -565 419 -73 19 -113 20 -965 19 -821 -1 -894 -2 -968 -19z m1460 -390
c59 -146 109 -267 111 -269 2 -2 9 8 15 23 7 14 15 26 19 26 4 0 34 -58 66
-128 l59 -129 175 -12 c169 -11 223 -23 163 -35 -20 -4 -280 -24 -334 -26 -3
0 -32 -58 -64 -130 -32 -71 -61 -130 -64 -130 -3 0 -28 50 -55 110 -27 61 -53
107 -56 103 -4 -5 -40 -90 -80 -191 -40 -100 -74 -181 -76 -180 -2 3 -102 245
-125 306 -12 29 -7 39 -204 -466 -26 -68 -51 -120 -55 -115 -5 4 -55 130 -112
278 -58 149 -108 279 -112 290 -7 18 -10 15 -25 -19 l-17 -38 -33 83 c-19 46
-38 88 -42 93 -4 5 -67 12 -141 17 -259 17 -269 31 -32 49 82 6 152 14 156 18
3 4 25 52 48 107 22 54 42 100 44 102 1 2 20 -40 41 -92 21 -52 41 -95 44 -95
3 0 44 98 90 218 46 119 87 221 91 225 3 4 35 -65 70 -154 39 -101 65 -157 70
-148 4 8 60 146 125 307 71 176 121 288 126 280 4 -7 55 -132 114 -278z"/>
<path d="M1305 4625 c-185 -41 -365 -145 -479 -279 -163 -192 -242 -437 -215
-676 37 -325 219 -580 513 -716 107 -49 220 -73 373 -81 l133 -6 2 -294 3
-294 319 293 319 293 446 6 c480 6 477 6 633 65 197 74 372 236 467 429 70
142 86 217 86 395 -1 176 -12 233 -75 366 -110 236 -292 399 -540 480 l-85 29
-920 2 c-737 1 -932 -1 -980 -12z m1175 -466 c0 -8 -165 -455 -310 -841 l-21
-58 -85 0 c-46 0 -84 3 -84 6 0 4 75 209 167 455 l167 449 83 0 c51 0 83 -4
83 -11z m-570 -183 l0 -73 -201 -94 c-110 -51 -202 -96 -204 -99 -2 -4 88 -44
200 -90 l205 -83 0 -75 c0 -64 -2 -73 -16 -68 -9 3 -146 64 -305 134 l-289
127 0 47 0 48 298 149 c163 83 300 150 305 150 4 1 7 -32 7 -73z m945 -78
l305 -153 0 -45 0 -45 -303 -133 c-166 -73 -306 -132 -310 -132 -4 0 -7 33 -5
73 l3 72 207 85 c114 47 204 88 200 92 -4 4 -92 46 -197 94 -104 48 -196 91
-202 97 -12 9 -19 147 -8 147 3 0 142 -69 310 -152z"/>
</g>
</svg>
